<svg width="146" height="136" viewBox="0 0 146 136" fill="none" xmlns="http://www.w3.org/2000/svg">
<path d="M108.305 20.1414C110.237 17.8473 109.955 14.4015 107.514 12.6587C96.5532 4.83244 83.4763 0.412502 69.9324 0.0274623C54.5732 -0.409184 39.5188 4.36889 27.2226 13.583C14.9264 22.7972 6.11337 35.9042 2.21961 50.7681C-1.67416 65.632 -0.419061 81.3764 5.78037 95.4357C11.9798 109.495 22.7581 121.04 36.3587 128.19C49.9594 135.34 65.5806 137.672 80.6767 134.808C95.7727 131.943 109.454 124.051 119.49 112.416C128.34 102.156 133.896 89.5201 135.51 76.1492C135.869 73.1716 133.516 70.6394 130.519 70.5187C127.522 70.3979 125.021 72.7362 124.617 75.708C123.131 86.6244 118.512 96.9211 111.266 105.322C102.833 115.098 91.3368 121.73 78.6519 124.137C65.967 126.544 52.8409 124.584 41.4126 118.576C29.9842 112.568 20.9275 102.867 15.7183 91.0536C10.509 79.2399 9.45439 66.0102 12.7262 53.5204C15.9981 41.0306 23.4035 30.0171 33.7357 22.2747C44.0679 14.5322 56.7177 10.5173 69.6237 10.8842C80.7135 11.1995 91.4306 14.7341 100.493 20.9992C102.96 22.7048 106.373 22.4354 108.305 20.1414Z" fill="#00A91B"/>
<path d="M136 21.2255L69.5232 88.0463L39.3064 57.6732" stroke="#00A91B" stroke-width="20" stroke-linecap="round" stroke-linejoin="round"/>
</svg>
