<svg width="166" height="56" viewBox="0 0 166 56" fill="none" xmlns="http://www.w3.org/2000/svg">
<g opacity="0.5" clip-path="url(#clip0_173_2352)">
<path opacity="0.5" d="M21.103 57.9845L113.189 65L179.568 57.2846C180.057 57.2277 180.051 56.5149 179.561 56.4685C164.87 55.0784 112.418 50.2173 95.3545 50.0323C75.4351 49.8162 17.3081 51.5121 17.3081 51.5121L21.103 57.9845Z" fill="#231F20"/>
<path d="M2.47651 20.7352C1.31659 20.7352 0.376221 19.7948 0.376221 18.6349V15.9168C0.376221 14.7569 1.31659 13.8165 2.47651 13.8165C3.63642 13.8165 4.57679 14.7569 4.57679 15.9168V18.6349C4.57679 19.7948 3.63642 20.7352 2.47651 20.7352Z" fill="#CECECE"/>
<path d="M2.47651 36.8202C1.31659 36.8202 0.376221 35.88 0.376221 34.7199V25.9954C0.376221 24.8355 1.31659 23.8951 2.47651 23.8951C3.63642 23.8951 4.57679 24.8355 4.57679 25.9954V34.7199C4.57679 35.88 3.63642 36.8202 2.47651 36.8202Z" fill="white"/>
<path d="M101.13 -19.9692H89.562C85.9682 -19.9692 82.1131 -17.0248 80.9516 -13.3928L76.1607 1.58702C74.9991 5.21902 76.9708 8.16344 80.5646 8.16344H92.1328C95.7266 8.16344 99.5817 5.21902 100.743 1.58702L105.534 -13.3928C106.696 -17.0248 104.724 -19.9692 101.13 -19.9692Z" fill="white"/>
<path d="M128.786 -19.9692H117.218C113.624 -19.9692 109.769 -17.0248 108.607 -13.3928L103.816 1.58702C102.655 5.21902 104.626 8.16344 108.22 8.16344H119.788C123.382 8.16344 127.237 5.21902 128.399 1.58702L133.19 -13.3928C134.351 -17.0248 132.38 -19.9692 128.786 -19.9692Z" fill="white"/>
<path d="M46.753 8.80323C43.9749 8.80323 41.3923 7.23336 39.481 4.3825C37.654 1.65763 36.6479 -1.94585 36.6479 -5.76416C36.6479 -9.58247 37.654 -13.1861 39.481 -15.9108C41.3923 -18.7619 43.9749 -20.3318 46.753 -20.3318C49.531 -20.3318 52.1134 -18.7619 54.0247 -15.9108C55.8517 -13.1861 56.8578 -9.58247 56.8578 -5.76416C56.8578 -1.94585 55.8517 1.65763 54.0247 4.3825C52.1134 7.23336 49.531 8.80323 46.753 8.80323ZM46.753 -18.2799C42.3123 -18.2799 38.6998 -12.6654 38.6998 -5.76416C38.6998 1.13707 42.3123 6.75137 46.753 6.75137C51.1934 6.75137 54.8061 1.13707 54.8061 -5.76416C54.8061 -12.6654 51.1934 -18.2799 46.753 -18.2799Z" fill="white"/>
<path d="M19.5338 19.7084L71.4273 18.9086C69.3569 18.9663 67.3966 19.5012 65.6221 20.4215C63.8532 21.3389 62.2679 22.6399 60.9416 24.234C59.6184 25.8246 58.5516 27.7082 57.816 29.797C57.0815 31.8832 56.6764 34.1761 56.6764 36.5895C56.6764 36.6187 56.6768 36.6476 56.6772 36.6765C56.6777 36.7055 56.6785 36.7344 56.6791 36.7633C56.6799 36.7922 56.6805 36.8212 56.6813 36.8501C56.682 36.879 56.6826 36.908 56.683 36.9371L4.73111 40.5385C4.7307 40.5059 3.698 39.5657 3.698 39.5331C3.698 36.8245 4.13217 34.252 4.91947 31.9125C5.708 29.5697 6.85212 27.4573 8.2716 25.6742C9.69477 23.8867 11.3962 22.4282 13.2956 21.4004C15.2018 20.3687 17.3084 19.7702 19.5338 19.7084Z" fill="#CECECE"/>
<path d="M108.548 20.5319L153.491 19.7165C151.143 19.8039 148.922 20.3925 146.913 21.3859C144.911 22.3759 143.118 23.7685 141.619 25.4693C140.123 27.1657 138.918 29.1706 138.088 31.3911C137.259 33.6088 136.802 36.0441 136.802 38.6073C136.802 38.6383 136.803 38.6693 136.803 38.7003C136.804 38.7313 136.805 38.762 136.806 38.793C136.807 38.824 136.808 38.8548 136.808 38.8858C136.809 38.9168 136.81 38.9477 136.811 38.9787L91.3544 43.1323C91.3536 43.097 90.9342 42.747 90.9342 42.7117C90.9342 39.8103 90.8166 36.2339 91.7209 33.7262C92.6266 31.2145 93.9408 28.9476 95.5728 27.0297C97.2094 25.1065 99.1671 23.5323 101.355 22.414C103.55 21.2917 105.979 20.6277 108.548 20.5319Z" fill="#CECECE"/>
<path d="M147.615 22.7114C149.649 22.7401 151.594 23.2348 153.369 24.107C155.15 24.9821 156.759 26.2369 158.114 27.7805C159.472 29.328 160.573 31.1646 161.336 33.1976C162.1 35.2334 162.522 37.4636 162.522 39.7933C162.522 42.1226 162.1 44.3275 161.336 46.3178C160.573 48.3054 159.472 50.0766 158.114 51.5437C156.759 53.0071 155.15 54.1666 153.369 54.9362C151.594 55.7034 149.649 56.083 147.615 55.9913C145.589 55.9 143.665 55.3493 141.922 54.4339C140.184 53.5215 138.624 52.2462 137.317 50.7004C136.014 49.1582 134.961 47.3454 134.235 45.3524C133.51 43.3621 133.109 41.1894 133.109 38.9229C133.109 36.656 133.51 34.5069 134.235 32.5591C134.961 30.6088 136.014 28.8581 137.317 27.3929C138.624 25.9242 140.184 24.7411 141.922 23.9316C143.665 23.1195 145.589 22.6826 147.615 22.7114Z" fill="#231F20"/>
<path d="M147.615 27.2503C149.093 27.2773 150.506 27.6428 151.793 28.2815C153.084 28.9217 154.25 29.8364 155.23 30.9594C156.212 32.0844 157.009 33.4177 157.56 34.8922C158.111 36.3681 158.417 37.9842 158.417 39.672C158.417 41.3599 158.111 42.9579 157.56 44.4011C157.009 45.843 156.213 47.1291 155.23 48.1961C154.25 49.261 153.084 50.1066 151.793 50.6706C150.506 51.2332 149.093 51.5149 147.615 51.4546C146.141 51.3943 144.74 50.9993 143.468 50.3378C142.2 49.6779 141.061 48.7523 140.106 47.6281C139.152 46.5059 138.382 45.1852 137.85 43.7316C137.319 42.2795 137.026 40.6938 137.026 39.0392C137.026 37.3846 137.319 35.8164 137.85 34.3957C138.382 32.9737 139.152 31.6985 140.106 30.6328C141.061 29.5652 142.2 28.7069 143.468 28.1221C144.74 27.5353 146.141 27.2234 147.615 27.2503Z" fill="#717171"/>
<path d="M169.227 39.3456C169.227 41.4321 168.888 43.4183 168.27 45.2408C167.65 47.0594 166.754 48.714 165.635 50.1392C164.52 51.5605 163.187 52.7523 161.695 53.6545C161.27 53.9114 160.835 54.1428 160.387 54.3488C156.962 54.8536 153.537 55.3602 150.111 55.8668C151.744 54.769 152.885 54.9995 154.373 54.1009C155.866 53.2008 157.2 52.0072 158.315 50.5857C159.432 49.1607 160.331 47.5079 160.948 45.6875C161.568 43.8652 161.907 41.8788 161.907 39.7941C161.907 37.4634 161.484 35.2331 160.72 33.1974C159.957 31.1654 158.856 29.3286 157.499 27.7797C156.143 26.2363 154.534 24.9824 152.753 24.1077C150.979 23.2348 149.65 22.7391 147.616 22.7118L155.596 22.3455C157.169 22.5187 158.674 22.9724 160.073 23.6593C161.855 24.5359 163.465 25.7896 164.818 27.333C166.176 28.8801 167.279 30.7169 168.04 32.7507C168.806 34.7864 169.227 37.0167 169.227 39.3456Z" fill="#231F20"/>
<path d="M134.754 43.2687C134.754 45.6181 134.373 47.8546 133.677 49.9065C132.98 51.9543 131.97 53.8174 130.71 55.4219C129.454 57.0224 127.954 58.3643 126.274 59.3799C125.796 59.6693 125.306 59.9298 124.801 60.1617C120.945 60.7301 117.088 61.3005 113.23 61.8709C115.194 61.5795 116.431 60.8942 118.107 59.8827C119.788 58.869 121.29 57.5251 122.546 55.9246C123.803 54.3201 124.815 52.459 125.511 50.4092C126.208 48.3573 126.59 46.1208 126.59 43.7735C126.59 41.1492 126.114 38.6377 125.254 36.3458C124.394 34.0579 123.155 31.9897 121.626 30.2456C120.1 28.5076 118.288 27.096 116.283 26.1111C114.285 25.1282 112.711 24.5701 110.421 24.5393L119.406 24.1269C121.177 24.3218 122.872 24.8328 124.448 25.6063C126.454 26.5933 128.266 28.0049 129.791 29.7429C131.319 31.4849 132.561 33.5532 133.418 35.8431C134.28 38.135 134.754 40.6465 134.754 43.2687Z" fill="#231F20"/>
<path d="M110.42 24.5388C112.711 24.571 114.9 25.1281 116.899 26.1103C118.904 27.0958 120.716 28.5085 122.241 30.2466C123.771 31.9891 125.011 34.0571 125.87 36.3462C126.73 38.6385 127.206 41.1496 127.206 43.7729C127.206 46.3958 126.73 48.8783 125.87 51.1194C125.011 53.3574 123.771 55.3518 122.241 57.0037C120.716 58.6516 118.904 59.957 116.899 60.8237C114.9 61.6875 112.711 62.1149 110.42 62.0117C108.138 61.9089 105.973 61.2888 104.009 60.2582C102.053 59.2308 100.296 57.7947 98.8247 56.0541C97.357 54.3176 96.172 52.2766 95.3543 50.0323C94.5379 47.7913 94.0869 45.3448 94.0869 42.7929C94.0869 40.2404 94.5379 37.8205 95.3543 35.6274C96.1718 33.4313 97.357 31.4601 98.8247 29.8104C100.296 28.1566 102.053 26.8245 104.009 25.9129C105.973 24.9984 108.138 24.5068 110.42 24.5388Z" fill="#717171"/>
<path d="M110.42 29.6497C112.085 29.6803 113.675 30.0917 115.125 30.8109C116.578 31.5319 117.89 32.5617 118.994 33.8261C120.101 35.0927 120.997 36.5941 121.618 38.2542C122.239 39.916 122.582 41.7356 122.582 43.6362C122.582 45.5369 122.239 47.336 121.618 48.961C120.997 50.5845 120.101 52.0327 118.994 53.234C117.89 54.4331 116.578 55.3852 115.125 56.0202C113.675 56.6537 112.085 56.9709 110.42 56.903C108.76 56.835 107.182 56.3904 105.751 55.6456C104.323 54.9024 103.04 53.8603 101.965 52.5945C100.891 51.3309 100.024 49.8437 99.425 48.2072C98.8269 46.5723 98.4963 44.7867 98.4963 42.9236C98.4963 41.0605 98.8269 39.2947 99.425 37.6951C100.024 36.094 100.891 34.6581 101.965 33.458C103.04 32.2558 104.323 31.2896 105.751 30.6309C107.182 29.9706 108.76 29.6194 110.42 29.6497Z" fill="white"/>
<path d="M110.427 30.388C112.001 30.4169 113.505 30.8059 114.877 31.4861C116.251 32.168 117.492 33.142 118.537 34.338C119.583 35.5361 120.431 36.956 121.018 38.5263C121.605 40.0982 121.93 41.8191 121.93 43.6167C121.93 45.4144 121.605 47.116 121.018 48.6532C120.431 50.1889 119.583 51.5585 118.537 52.6948C117.492 53.8288 116.251 54.7296 114.877 55.33C113.505 55.9291 112.001 56.2291 110.427 56.1649C108.857 56.1007 107.365 55.68 106.011 54.9756C104.66 54.2729 103.447 53.287 102.43 52.0899C101.414 50.8949 100.594 49.4881 100.028 47.9402C99.4619 46.3937 99.1494 44.705 99.1494 42.9429C99.1494 41.1808 99.4619 39.5106 100.028 37.9975C100.594 36.483 101.414 35.1249 102.43 33.99C103.447 32.8531 104.66 31.939 106.011 31.316C107.365 30.6915 108.857 30.3593 110.427 30.388Z" fill="white"/>
<path d="M129.49 41.2212H145.494C147.024 41.2212 148.264 39.981 148.264 38.4514C148.264 36.9217 147.023 35.6816 145.494 35.6816H129.49C127.96 35.6816 126.72 36.9217 126.72 38.4514C126.72 39.981 127.96 41.2212 129.49 41.2212Z" fill="#231F20"/>
<path d="M170.003 33.6669C170.003 33.6669 167.977 22.0051 166.483 16.2679C165.533 12.6205 163.637 9.71898 162.38 8.08611C162.347 7.61438 162.313 7.13466 162.276 6.64755C162.135 4.7662 161.967 2.77958 161.784 0.759115C161.601 -1.26074 161.393 -3.39016 161.186 -5.40611L118.001 -7.14835C117.326 -5.1246 117.018 -2.44404 117.219 -0.151705C117.42 2.14145 117.604 4.39625 117.759 6.53162C117.914 8.6676 119.702 15.9298 119.702 17.262L122.691 17.1814L127.832 36.512L170.003 33.6669Z" fill="#CECECE"/>
<path d="M44.292 40.3346C44.292 42.5711 43.9455 44.6989 43.3133 46.644C42.6834 48.5872 41.7703 50.3456 40.6356 51.8476C39.503 53.3475 38.1508 54.5909 36.6407 55.5081C35.8158 56.0087 34.9438 56.4109 34.0368 56.7043C30.3291 57.1106 26.6214 57.5189 22.9137 57.9272C24.6701 57.7344 25.3039 57.1455 26.81 56.2324C28.3181 55.3152 29.6703 54.0718 30.8029 52.5739C31.9396 51.0699 32.8527 49.3115 33.4826 47.3684C34.1146 45.4232 34.4593 43.2954 34.4593 41.0589C34.4593 38.6315 34.0531 36.3088 33.3164 34.1893C32.5819 32.0738 31.519 30.1615 30.2099 28.5507C28.9029 26.9441 27.3496 25.6391 25.6322 24.7281C23.9189 23.8212 23.0674 23.3082 21.1038 23.2795L32.5285 22.8876C33.5483 23.1338 34.5291 23.5093 35.4627 24.0038C37.1821 24.9148 38.7333 26.2198 40.0404 27.8264C41.3495 29.4371 42.4123 31.3495 43.1469 33.465C43.8837 35.5845 44.292 37.9072 44.292 40.3346Z" fill="#231F20"/>
<path d="M21.1031 23.2803C23.0672 23.308 24.9446 23.8216 26.6579 24.7289C28.3764 25.6389 29.9284 26.9446 31.2352 28.5514C32.5451 30.1619 33.6074 32.0736 34.3426 34.1903C35.0788 36.3097 35.4863 38.6319 35.4863 41.0591C35.4863 43.4856 35.0788 45.7835 34.3426 47.8592C33.6074 49.932 32.5451 51.7807 31.2352 53.3136C29.9284 54.8429 28.3764 56.0566 26.6579 56.865C24.9446 57.6708 23.0672 58.0733 21.1031 57.9849C19.1461 57.8967 17.2877 57.3289 15.6029 56.3801C13.9233 55.434 12.4148 54.1085 11.1512 52.4995C9.89035 50.8941 8.87221 49.0051 8.16966 46.927C7.46792 44.8513 7.08032 42.5847 7.08032 40.2189C7.08032 37.8526 7.46792 35.6085 8.16966 33.5741C8.87221 31.5372 9.89055 29.7084 11.1512 28.1775C12.415 26.6431 13.9233 25.4067 15.6029 24.5601C17.2879 23.7104 19.1461 23.2526 21.1031 23.2803Z" fill="#717171"/>
<path d="M21.1032 28.0136C22.531 28.0396 23.8945 28.4186 25.1377 29.0828C26.3836 29.7482 27.5078 30.6999 28.4537 31.8686C29.4013 33.0394 30.1693 34.4275 30.7005 35.9629C31.2324 37.4997 31.5266 39.1831 31.5266 40.9417C31.5266 42.7004 31.2324 44.3663 30.7005 45.8717C30.1693 47.3757 29.4013 48.7183 28.4537 49.833C27.5078 50.946 26.3834 51.8309 25.1377 52.4227C23.8947 53.0132 22.531 53.3114 21.1032 53.2531C19.679 53.1948 18.3256 52.7873 17.0975 52.1014C15.8721 51.4169 14.7709 50.4546 13.8478 49.2846C12.9263 48.1165 12.1815 46.7405 11.6675 45.2252C11.1539 43.7113 10.8701 42.0573 10.8701 40.3307C10.8701 38.604 11.1539 36.9669 11.6675 35.4834C12.1815 33.9984 12.9261 32.6666 13.8478 31.553C14.7709 30.4376 15.8721 29.5406 17.0975 28.9285C18.3256 28.315 19.679 27.9875 21.1032 28.0136Z" fill="white"/>
<path d="M21.108 28.6619C22.4625 28.6868 23.756 29.0463 24.9352 29.6762C26.117 30.3075 27.1836 31.2102 28.0809 32.319C28.9798 33.4297 29.7082 34.7463 30.2121 36.2029C30.7167 37.6608 30.9957 39.2578 30.9957 40.9261C30.9957 42.5945 30.7165 44.1748 30.2121 45.6029C29.7082 47.0296 28.9796 48.3034 28.0809 49.3607C27.1836 50.4164 26.117 51.2558 24.9352 51.8172C23.756 52.3774 22.4625 52.6603 21.108 52.6049C19.7571 52.5497 18.4732 52.1631 17.3082 51.5123C16.1458 50.8629 15.1012 49.9502 14.2255 48.8402C13.3512 47.7321 12.6449 46.4268 12.1572 44.9892C11.6701 43.5531 11.4009 41.9841 11.4009 40.3461C11.4009 38.7081 11.6701 37.155 12.1572 35.7476C12.6447 34.339 13.3512 33.0755 14.2255 32.0192C15.1012 30.9611 16.1458 30.1102 17.3082 29.5295C18.4732 28.948 19.7571 28.6373 21.108 28.6619Z" fill="white"/>
<path d="M85.2609 37.4045C85.2609 39.4145 84.9494 41.3267 84.3814 43.0748C83.8153 44.8212 82.9948 46.4015 81.975 47.7512C80.9571 49.0993 79.742 50.2168 78.3849 51.041C77.6435 51.491 76.8599 51.8523 76.0449 52.116C72.7127 52.481 69.3807 52.8481 66.0487 53.2149C67.6938 52.1824 68.2981 52.5124 69.6515 51.6918C71.007 50.8676 72.2221 49.7502 73.24 48.4039C74.2617 47.0522 75.0822 45.472 75.6483 43.7257C76.2163 41.9775 76.5261 40.0654 76.5261 38.0554C76.5261 35.8738 76.9818 33.7865 76.3199 31.8815C75.6598 29.9805 74.7044 28.2618 73.5281 26.8143C72.3534 25.3704 70.9575 24.1975 69.4141 23.3788C67.8744 22.5638 66.1872 22.1028 64.4224 22.0769L74.6899 21.7248C75.6062 21.946 76.4877 22.2835 77.3267 22.728C78.872 23.5467 80.266 24.7195 81.4407 26.1634C82.6172 27.611 83.5724 29.3296 84.2325 31.2307C84.8938 33.1356 85.2609 35.223 85.2609 37.4045Z" fill="#231F20"/>
<path d="M64.4209 22.0777C66.1859 22.1026 67.8734 22.5642 69.4129 23.3796C70.9573 24.1975 72.3522 25.3708 73.5265 26.8149C74.7036 28.2623 75.6581 29.9803 76.319 31.8826C76.9808 33.7873 77.347 35.8742 77.347 38.0556C77.347 40.2363 76.9808 42.3015 76.319 44.1668C75.6583 46.0297 74.7036 47.6911 73.5265 49.0687C72.352 50.4431 70.9571 51.5338 69.4129 52.2602C67.8732 52.9845 66.1859 53.3462 64.4209 53.2666C62.6621 53.1872 60.9921 52.6771 59.478 51.8244C57.9684 50.9741 56.6128 49.7828 55.4771 48.3368C54.344 46.8942 53.4289 45.1967 52.7975 43.3289C52.167 41.4635 51.8186 39.4262 51.8186 37.3003C51.8186 35.1737 52.167 33.157 52.7975 31.3288C53.4289 29.4983 54.344 27.8548 55.4771 26.479C56.6128 25.1001 57.9682 23.9888 59.478 23.228C60.9921 22.4643 62.6621 22.0531 64.4209 22.0777Z" fill="#231F20"/>
<path d="M64.4209 26.3316C65.7041 26.3552 66.9295 26.6956 68.0467 27.2925C69.1664 27.8906 70.1768 28.7457 71.0268 29.7962C71.8784 30.8484 72.5686 32.0957 73.0461 33.4758C73.524 34.8569 73.7885 36.3698 73.7885 37.9503C73.7885 39.5309 73.524 41.0281 73.0461 42.3809C72.5686 43.7325 71.8784 44.9392 71.0268 45.9409C70.1768 46.9409 69.1664 47.7362 68.0467 48.2681C66.9295 48.7987 65.7041 49.0667 64.4209 49.0143C63.1409 48.962 61.9248 48.5958 60.8211 47.9792C59.7199 47.364 58.7303 46.4992 57.9007 45.4478C57.0726 44.3981 56.4032 43.1614 55.9414 41.7996C55.4799 40.439 55.2249 38.9526 55.2249 37.4008C55.2249 35.849 55.4799 34.3776 55.9414 33.0445C56.4032 31.7102 57.0726 30.5131 57.9007 29.5122C58.7303 28.5099 59.7199 27.7037 60.8211 27.1536C61.9248 26.6023 63.1409 26.308 64.4209 26.3316Z" fill="#717171"/>
<path d="M64.4258 26.9144C65.643 26.9367 66.8055 27.2597 67.8653 27.8258C68.9274 28.3931 69.886 29.2044 70.6924 30.2008C71.5002 31.1991 72.155 32.3824 72.6078 33.6913C73.0613 35.0016 73.312 36.4364 73.312 37.9359C73.312 39.4354 73.0611 40.8555 72.6078 42.139C72.1548 43.4212 71.5002 44.5657 70.6924 45.5161C69.886 46.4649 68.9274 47.2194 67.8653 47.7237C66.8055 48.227 65.643 48.4815 64.4258 48.4316C63.2117 48.382 62.0577 48.0346 61.0109 47.4496C59.9663 46.866 59.0274 46.0457 58.2405 45.0483C57.4548 44.0525 56.82 42.8793 56.3817 41.5876C55.9438 40.297 55.7019 38.8868 55.7019 37.415C55.7019 35.943 55.9438 34.5471 56.3817 33.2825C56.82 32.0167 57.4548 30.881 58.2405 29.9318C59.0274 28.981 59.9663 28.2163 61.0109 27.6945C62.0577 27.1713 63.2115 26.892 64.4258 26.9144Z" fill="#717171"/>
<path d="M127.295 23.362C127.295 23.362 125.308 13.5231 123.591 10.6037L129.571 10.3L130.508 22.2431L127.295 23.362Z" fill="#717171"/>
<path d="M164.227 22.7138C164.227 22.7138 162.619 14.1904 161.094 11.5972L165.951 11.3471L167.238 21.9363L164.227 22.7138Z" fill="#717171"/>
<path d="M129.784 25.094C128.394 25.1287 127.257 24.183 127.257 22.9812V12.4012C127.257 11.1996 128.394 10.2582 129.784 10.2984C131.16 10.3382 132.265 11.3266 132.265 12.5066V22.8956C132.265 24.0754 131.16 25.0597 129.784 25.094Z" fill="white"/>
<path d="M131.868 14.4116C131.868 16.2942 130.939 17.8189 129.784 17.8171C128.619 17.8152 127.668 16.2642 127.668 14.3527C127.668 12.4412 128.619 10.9169 129.784 10.9476C130.939 10.9782 131.868 12.529 131.868 14.4116Z" fill="#CECECE"/>
<path d="M166.095 24.1885C165.048 24.2145 164.193 23.3915 164.193 22.3498V13.1784C164.193 12.1367 165.048 11.317 166.095 11.3471C167.132 11.3771 167.967 12.2323 167.967 13.2576V22.2852C167.967 23.3107 167.132 24.1626 166.095 24.1885Z" fill="white"/>
<path d="M167.667 14.9139C167.667 16.5494 166.966 17.8741 166.095 17.8728C165.218 17.8714 164.502 16.5268 164.502 14.8695C164.502 13.2123 165.218 11.8876 166.095 11.9108C166.966 11.9337 167.667 13.2783 167.667 14.9139Z" fill="#CECECE"/>
<path d="M127.833 36.5122C127.833 36.5122 125.699 23.7884 124.015 17.3254C122.921 13.1226 120.711 9.79716 119.297 7.98311C119.265 7.50605 119.231 7.02264 119.195 6.53183C119.04 4.39646 118.857 2.14167 118.656 -0.151492C118.455 -2.44383 118.227 -4.86051 118.001 -7.14813L102.839 -6.88016L22.4323 -5.91722L12.3232 -5.79616C10.8475 -4.04449 9.429 -2.2409 8.13243 -0.354834C6.83894 1.52672 5.6661 3.49138 4.67792 5.56991C3.69139 7.64476 2.88829 9.83471 2.33203 12.1716C1.77638 14.5062 1.46655 16.9893 1.46655 19.6545V40.4411L4.73106 40.5388C4.73065 40.5061 4.73004 40.4737 4.72942 40.4411C4.72881 40.4087 4.72778 40.3762 4.72717 40.3438C4.72634 40.3114 4.72573 40.279 4.72511 40.2466C4.7245 40.2141 4.72429 40.1815 4.72429 40.1489C4.72429 37.3855 5.17611 34.7638 5.99398 32.3867C6.81309 30.0059 8.0007 27.8671 9.47168 26.0752C10.9466 24.2786 12.7079 22.8287 14.6703 21.8338C16.6397 20.8351 18.8128 20.2939 21.1033 20.3201C23.403 20.3464 25.6026 20.9425 27.611 22.0004C29.6265 23.0622 31.4475 24.5886 32.9817 26.4694C34.52 28.3552 35.7677 30.5954 36.6318 33.0772C37.497 35.5626 37.9761 38.2864 37.9761 41.1332C37.9761 41.1668 37.9757 41.2003 37.9751 41.2337C37.9745 41.2672 37.9737 41.3006 37.9729 41.3339C37.972 41.3673 37.971 41.4005 37.9704 41.434C37.9696 41.4674 37.969 41.5009 37.9685 41.5345L91.3543 43.1331C91.3534 43.098 91.3524 43.0627 91.3514 43.0279C91.3504 42.9928 91.3493 42.9579 91.3483 42.9228C91.3473 42.8877 91.3463 42.8528 91.3456 42.818C91.345 42.7831 91.3446 42.7478 91.3446 42.7127C91.3446 39.7322 91.8703 36.9057 92.8218 34.3434C93.7748 31.7769 95.1568 29.4716 96.8691 27.5406C98.5861 25.6041 100.637 24.042 102.923 22.9703C105.217 21.8945 107.75 21.3124 110.421 21.343C111.255 21.3524 112.078 21.4218 112.886 21.5469C113.696 21.6723 114.491 21.8541 115.269 22.0884C116.047 22.3232 116.808 22.6104 117.548 22.9471C118.288 23.284 119.008 23.6702 119.703 24.1021V24.035C122.33 25.8259 125.586 28.8333 127.833 36.5122Z" fill="#717171"/>
<path d="M151.785 6.95942L137.478 6.82893C136.909 6.84822 136.444 6.45651 136.444 5.95401V-0.844007C136.444 -1.34651 136.909 -1.73821 137.478 -1.71892L151.785 -1.23386C152.228 -1.21888 152.585 -0.850985 152.585 -0.412297V6.13806C152.585 6.57675 152.228 6.94444 151.785 6.95942Z" fill="#231F20"/>
</g>
<defs>
<clipPath id="clip0_173_2352">
<rect width="179.692" height="112" fill="white" transform="translate(0.307617 -47)"/>
</clipPath>
</defs>
</svg>
