<svg width="71" height="80" viewBox="0 0 71 80" fill="none" xmlns="http://www.w3.org/2000/svg">
<path d="M35.4213 79.9999C34.9784 80.0032 34.543 79.8876 34.1609 79.6656L1.30526 61.2984C0.909944 61.0721 0.581344 60.7474 0.352311 60.3562C0.123279 59.9651 0.00179581 59.5214 0 59.0691V2.56325C0 1.88336 0.272696 1.23156 0.758064 0.750882C1.2434 0.270204 1.90163 0 2.588 0H68.4346C69.1174 0.00588046 69.7699 0.278461 70.2501 0.758478C70.7306 1.23883 71.0003 1.88733 71 2.56325V59.0691C70.9983 59.5214 70.877 59.9651 70.6478 60.3562C70.4187 60.7474 70.0905 61.0721 69.695 61.2984L36.7715 79.6656C36.3884 79.8846 35.9537 79.9999 35.5114 79.9999H35.4213ZM5.15351 57.5759L35.5114 74.5166L65.8467 57.5759V5.12686H5.08594L5.15351 57.5759Z" fill="white"/>
<path d="M35.4218 54.4134C34.9825 54.4134 34.5495 54.3064 34.1617 54.1012L23.8099 48.2614C23.4098 48.0407 23.0776 47.717 22.8478 47.3245C22.618 46.9324 22.4992 46.4857 22.5046 46.0325V35.333H27.6582V44.561L35.5119 49.0193L44.6712 43.9148L47.1917 48.3728L36.7723 54.2129C36.3835 54.4151 35.9512 54.5221 35.5119 54.5248" fill="white"/>
<path d="M35.4209 67.2082C34.9779 67.2112 34.5422 67.0959 34.1605 66.8735L12.5569 54.7922C12.1614 54.5662 11.8329 54.2414 11.6037 53.8503C11.3746 53.4591 11.2532 53.0155 11.2516 52.5632V24.8564C11.2486 24.5191 11.3134 24.1844 11.4425 23.8719C11.5715 23.5597 11.7617 23.2759 12.0028 23.0374C12.2436 22.7985 12.5302 22.6099 12.8455 22.482C13.1608 22.3545 13.4987 22.2901 13.8395 22.2931H45.6603V27.3975H16.4049V51.07L35.511 61.7245L54.6168 51.07V39.9249H59.7701V52.474C59.7637 52.9279 59.638 53.3723 59.4053 53.7634C59.1721 54.1542 58.8406 54.4783 58.4425 54.7033L36.771 66.7847C36.3879 67.0037 35.9533 67.119 35.511 67.119" fill="white"/>
<path d="M59.6811 30.249H54.5278V16.2509H20.2993V11.1465H57.0932C57.7776 11.1521 58.4327 11.4243 58.9166 11.9037C59.4008 12.383 59.6751 13.0319 59.6811 13.7098V30.249Z" fill="white"/>
</svg>
