<svg width="24" height="24" viewBox="0 0 24 24" fill="none" xmlns="http://www.w3.org/2000/svg">
<g clip-path="url(#clip0_199_526)">
<path opacity="0.2" d="M18.6215 8.12157C19.1842 7.5589 19.5003 6.79575 19.5003 6.00001C19.5003 5.20427 19.1842 4.44112 18.6215 3.87844C18.0589 3.31577 17.2957 2.99966 16.5 2.99966C15.7042 2.99966 14.9411 3.31577 14.3784 3.87844L5.06809 13.3181C4.23553 14.1644 3.77108 15.3053 3.77592 16.4924C3.78075 17.6795 4.25447 18.8166 5.0939 19.6561C5.93332 20.4955 7.07044 20.9692 8.25756 20.9741C9.44467 20.9789 10.5856 20.5144 11.4318 19.6819L19.125 12L16.9453 9.82032L18.6215 8.12157Z" fill="black"/>
<path d="M15 7.50001L7.18965 15.4397C6.9152 15.7224 6.76301 16.1018 6.76598 16.4958C6.76894 16.8898 6.92682 17.2668 7.20551 17.5454C7.48419 17.824 7.86128 17.9817 8.2553 17.9845C8.64932 17.9873 9.02862 17.8349 9.31122 17.5603L18.6215 8.12157C19.1842 7.5589 19.5003 6.79575 19.5003 6.00001C19.5003 5.20427 19.1842 4.44112 18.6215 3.87844C18.0589 3.31577 17.2957 2.99966 16.5 2.99966C15.7042 2.99966 14.9411 3.31577 14.3784 3.87844L5.06809 13.3181C4.23553 14.1644 3.77108 15.3053 3.77592 16.4924C3.78075 17.6795 4.25447 18.8166 5.0939 19.6561C5.93332 20.4955 7.07044 20.9692 8.25756 20.9741C9.44467 20.9789 10.5856 20.5144 11.4318 19.6819L19.125 12" stroke="black" stroke-width="1.5" stroke-linecap="round" stroke-linejoin="round"/>
</g>
<defs>
<clipPath id="clip0_199_526">
<rect width="24" height="24" fill="white"/>
</clipPath>
</defs>
</svg>
