<svg width="24" height="24" viewBox="0 0 24 24" fill="none" xmlns="http://www.w3.org/2000/svg">
<g clip-path="url(#clip0_173_2524)">
<path opacity="0.2" d="M20.25 20.25V12.75H15.75L9.75 8.25V12.75L3.75 8.25V20.25H20.25Z" fill="#1D3557"/>
<path d="M7.5 16.5H10.125" stroke="#1D3557" stroke-width="1.5" stroke-linecap="round" stroke-linejoin="round"/>
<path d="M13.875 16.5H16.5" stroke="#1D3557" stroke-width="1.5" stroke-linecap="round" stroke-linejoin="round"/>
<path d="M20.25 12.75H15.75L9.75 8.25V12.75L3.75 8.25V20.25" stroke="#1D3557" stroke-width="1.5" stroke-linecap="round" stroke-linejoin="round"/>
<path d="M2.25 20.25H21.75" stroke="#1D3557" stroke-width="1.5" stroke-linecap="round" stroke-linejoin="round"/>
<path d="M14.3953 11.7338L15.6562 2.89407C15.6818 2.71499 15.7712 2.55119 15.9079 2.43283C16.0447 2.31448 16.2197 2.24955 16.4006 2.25H18.0993C18.2802 2.24955 18.4552 2.31448 18.592 2.43283C18.7287 2.55119 18.8182 2.71499 18.8437 2.89407L20.25 12.75V20.25" stroke="#1D3557" stroke-width="1.5" stroke-linecap="round" stroke-linejoin="round"/>
</g>
<defs>
<clipPath id="clip0_173_2524">
<rect width="24" height="24" fill="white"/>
</clipPath>
</defs>
</svg>
