<svg width="24" height="24" viewBox="0 0 24 24" fill="none" xmlns="http://www.w3.org/2000/svg">
<g clip-path="url(#clip0_173_2471)">
<path opacity="0.2" d="M20.25 4.5H3.75C3.55109 4.5 3.36032 4.57902 3.21967 4.71967C3.07902 4.86032 3 5.05109 3 5.25V18.75C3 18.9489 3.07902 19.1397 3.21967 19.2803C3.36032 19.421 3.55109 19.5 3.75 19.5H20.25C20.4489 19.5 20.6397 19.421 20.7803 19.2803C20.921 19.1397 21 18.9489 21 18.75V5.25C21 5.05109 20.921 4.86032 20.7803 4.71967C20.6397 4.57902 20.4489 4.5 20.25 4.5ZM9 13.5C8.55499 13.5 8.11998 13.368 7.74997 13.1208C7.37996 12.8736 7.09157 12.5222 6.92127 12.111C6.75097 11.6999 6.70642 11.2475 6.79323 10.811C6.88005 10.3746 7.09434 9.97368 7.40901 9.65901C7.72368 9.34434 8.12459 9.13005 8.56105 9.04323C8.9975 8.95642 9.4499 9.00097 9.86104 9.17127C10.2722 9.34157 10.6236 9.62996 10.8708 9.99997C11.118 10.37 11.25 10.805 11.25 11.25C11.25 11.8467 11.0129 12.419 10.591 12.841C10.169 13.2629 9.59674 13.5 9 13.5Z" fill="#1D3557"/>
<path d="M14.25 10.5H18" stroke="#1D3557" stroke-width="1.5" stroke-linecap="round" stroke-linejoin="round"/>
<path d="M14.25 13.5H18" stroke="#1D3557" stroke-width="1.5" stroke-linecap="round" stroke-linejoin="round"/>
<path d="M20.25 4.5H3.75C3.33579 4.5 3 4.83579 3 5.25V18.75C3 19.1642 3.33579 19.5 3.75 19.5H20.25C20.6642 19.5 21 19.1642 21 18.75V5.25C21 4.83579 20.6642 4.5 20.25 4.5Z" stroke="#1D3557" stroke-width="1.5" stroke-linecap="round" stroke-linejoin="round"/>
<path d="M9 13.5C10.2426 13.5 11.25 12.4926 11.25 11.25C11.25 10.0074 10.2426 9 9 9C7.75736 9 6.75 10.0074 6.75 11.25C6.75 12.4926 7.75736 13.5 9 13.5Z" stroke="#1D3557" stroke-width="1.5" stroke-linecap="round" stroke-linejoin="round"/>
<path d="M6 15.75C6.33281 14.4562 7.60219 13.5 9 13.5C10.3978 13.5 11.6681 14.4553 12 15.75" stroke="#1D3557" stroke-width="1.5" stroke-linecap="round" stroke-linejoin="round"/>
</g>
<defs>
<clipPath id="clip0_173_2471">
<rect width="24" height="24" fill="white"/>
</clipPath>
</defs>
</svg>
