<svg width="24" height="24" viewBox="0 0 24 24" fill="none" xmlns="http://www.w3.org/2000/svg">
<g clip-path="url(#clip0_70_101)">
<path d="M12 9C12.8284 9 13.5 8.32843 13.5 7.5C13.5 6.67157 12.8284 6 12 6C11.1716 6 10.5 6.67157 10.5 7.5C10.5 8.32843 11.1716 9 12 9Z" fill="black"/>
<path d="M17.25 7.5C17.25 12.75 12 15.75 12 15.75C12 15.75 6.75 12.75 6.75 7.5C6.75 6.10761 7.30312 4.77226 8.28769 3.78769C9.27226 2.80312 10.6076 2.25 12 2.25C13.3924 2.25 14.7277 2.80312 15.7123 3.78769C16.6969 4.77226 17.25 6.10761 17.25 7.5Z" stroke="black" stroke-width="1.5" stroke-linecap="round" stroke-linejoin="round"/>
<path d="M18.75 14.5439C20.5987 15.2264 21.75 16.1864 21.75 17.2496C21.75 19.3205 17.385 20.9996 12 20.9996C6.615 20.9996 2.25 19.3205 2.25 17.2496C2.25 16.1864 3.40125 15.2264 5.25 14.5439" stroke="black" stroke-width="1.5" stroke-linecap="round" stroke-linejoin="round"/>
</g>
<defs>
<clipPath id="clip0_70_101">
<rect width="24" height="24" fill="white"/>
</clipPath>
</defs>
</svg>
