<svg width="24" height="24" viewBox="0 0 24 24" fill="none" xmlns="http://www.w3.org/2000/svg">
<g clip-path="url(#clip0_74_134)">
<path d="M22.5 9.75H21.4875L18.8831 3.89062C18.7653 3.62553 18.5731 3.40029 18.3298 3.24222C18.0865 3.08414 17.8026 3 17.5125 3H6.4875C6.19738 3 5.91349 3.08414 5.67022 3.24222C5.42695 3.40029 5.23474 3.62553 5.11688 3.89062L2.5125 9.75H1.5C1.30109 9.75 1.11032 9.82902 0.96967 9.96967C0.829018 10.1103 0.75 10.3011 0.75 10.5C0.75 10.6989 0.829018 10.8897 0.96967 11.0303C1.11032 11.171 1.30109 11.25 1.5 11.25H2.25V18.75C2.25 19.1478 2.40804 19.5294 2.68934 19.8107C2.97064 20.092 3.35218 20.25 3.75 20.25H6C6.39782 20.25 6.77936 20.092 7.06066 19.8107C7.34196 19.5294 7.5 19.1478 7.5 18.75V18H16.5V18.75C16.5 19.1478 16.658 19.5294 16.9393 19.8107C17.2206 20.092 17.6022 20.25 18 20.25H20.25C20.6478 20.25 21.0294 20.092 21.3107 19.8107C21.592 19.5294 21.75 19.1478 21.75 18.75V11.25H22.5C22.6989 11.25 22.8897 11.171 23.0303 11.0303C23.171 10.8897 23.25 10.6989 23.25 10.5C23.25 10.3011 23.171 10.1103 23.0303 9.96967C22.8897 9.82902 22.6989 9.75 22.5 9.75ZM4.15406 9.75L6.4875 4.5H17.5125L19.8459 9.75H4.15406Z" fill="black"/>
</g>
<defs>
<clipPath id="clip0_74_134">
<rect width="24" height="24" fill="white"/>
</clipPath>
</defs>
</svg>
