<svg width="24" height="24" viewBox="0 0 24 24" fill="none" xmlns="http://www.w3.org/2000/svg">
<path fill-rule="evenodd" clip-rule="evenodd" d="M23 12C23 14.9494 21.8392 17.6276 19.9497 19.6029C17.954 21.689 15.1455 22.9909 12.0328 23H12H11.9672C8.85447 22.9909 6.04595 21.689 4.05035 19.6029C2.16075 17.6276 1 14.9494 1 12C1 5.92487 5.92487 1 12 1C18.0751 1 23 5.92487 23 12ZM18.6673 17.5C17.0822 15.5805 14.6839 14.3571 12 14.3571C9.31609 14.3571 6.91791 15.5805 5.33266 17.5C6.91791 19.4195 9.31609 20.6429 12 20.6429C14.6839 20.6429 17.0822 19.4195 18.6673 17.5ZM12.0002 12.7857C14.1699 12.7857 15.9288 11.0268 15.9288 8.8571C15.9288 6.68741 14.1699 4.92852 12.0002 4.92852C9.8305 4.92852 8.07162 6.68741 8.07162 8.8571C8.07162 11.0268 9.8305 12.7857 12.0002 12.7857Z" fill="#1D3557"/>
</svg>
