<svg width="25" height="24" viewBox="0 0 25 24" fill="none" xmlns="http://www.w3.org/2000/svg">
<path d="M12.4998 13.6072C14.7188 13.6072 16.5176 11.8083 16.5176 9.58933C16.5176 7.37033 14.7188 5.57147 12.4998 5.57147C10.2808 5.57147 8.48193 7.37033 8.48193 9.58933C8.48193 11.8083 10.2808 13.6072 12.4998 13.6072Z" stroke="black" stroke-opacity="0.75" stroke-width="1.5" stroke-linecap="round" stroke-linejoin="round"/>
<path d="M5.63745 19.875C6.35462 18.6978 7.36257 17.7248 8.5644 17.0498C9.76622 16.3746 11.1215 16.02 12.5 16.02C13.8784 16.02 15.2337 16.3746 16.4355 17.0498C17.6374 17.7248 18.6452 18.6978 19.3625 19.875" stroke="black" stroke-opacity="0.75" stroke-width="1.5" stroke-linecap="round" stroke-linejoin="round"/>
<path d="M12.4999 22.4464C18.2694 22.4464 22.9463 17.7695 22.9463 12C22.9463 6.23062 18.2694 1.55359 12.4999 1.55359C6.73049 1.55359 2.05347 6.23062 2.05347 12C2.05347 17.7695 6.73049 22.4464 12.4999 22.4464Z" stroke="black" stroke-opacity="0.75" stroke-width="1.5" stroke-linecap="round" stroke-linejoin="round"/>
</svg>
