<svg width="20" height="21" viewBox="0 0 20 21" fill="none" xmlns="http://www.w3.org/2000/svg">
<path d="M9.58464 18C13.9569 18 17.5013 14.4556 17.5013 10.0834C17.5013 5.71112 13.9569 2.16671 9.58464 2.16671C5.21238 2.16671 1.66797 5.71112 1.66797 10.0834C1.66797 14.4556 5.21238 18 9.58464 18Z" stroke="#586375" stroke-width="2" stroke-linecap="round" stroke-linejoin="round"/>
<path d="M17.6275 19.5405C18.0181 19.931 18.6512 19.931 19.0417 19.5405C19.4323 19.15 19.4323 18.5168 19.0417 18.1263L17.6275 19.5405ZM17.3751 16.4596L16.668 15.7525L15.2538 17.1667L15.9609 17.8738L17.3751 16.4596ZM19.0417 18.1263L17.3751 16.4596L15.9609 17.8738L17.6275 19.5405L19.0417 18.1263Z" fill="#586375"/>
</svg>
